<?xml version="1.0" encoding="utf-8"?>
<!-- Generator: Adobe Illustrator 19.2.1, SVG Export Plug-In . SVG Version: 6.00 Build 0)  -->
<svg version="1.1" id="layer" xmlns="http://www.w3.org/2000/svg" xmlns:xlink="http://www.w3.org/1999/xlink" x="0px" y="0px"
	 viewBox="20 200 600 200" style="fill: #fff" xml:space="preserve">
<style type="text/css">
	.st0{opacity:0.6;enable-background:new    ;}
	.st1{fill:#3D89F5;}
	.st2{fill:#1656B9;}
	.st3{fill:#85B5F8;}
</style>
<path d="M410.7,298.7c-0.1-2.3,1.1-4.4,3.2-5.4c2.8-1.3,6.2-0.1,7.5,2.7c1.3,2.8,0.1,6.2-2.7,7.5c-0.8,0.4-1.6,0.5-2.4,0.5
	c-2.2,0.1-4.2-1.2-5.1-3.2C410.8,300.1,410.7,299.4,410.7,298.7z M411.1,308.8h10.4v37.5h-10.4V308.8z M133.7,296.3h-20v50h21.4
	c11.2,0,17.2-5.9,17.2-13.8c0.3-6.4-4.6-11.8-11-12.1v-0.5c5.3-0.8,9.1-5.4,9-10.7C150.3,301.6,144.7,296.3,133.7,296.3L133.7,296.3
	z M139.6,310.8c0,4-3.4,6.3-7.5,6.3l-8,0.1v-12.5h8.2C137,304.7,139.6,306.8,139.6,310.8z M141.2,331.3c0,3.7-2.4,6.2-8.3,6.2h-8.7
	v-13.2h8.7c4-0.6,7.7,2.2,8.3,6.2C141.1,330.8,141.2,331,141.2,331.3z M157.4,346.3H168l-0.2-50h-10.4L157.4,346.3L157.4,346.3z
	 M173.4,327.7c0-11.6,7.1-19.4,18.5-19.4s18.5,7.7,18.5,19.4s-7.1,19.3-18.5,19.3C180.5,347,173.4,339.2,173.4,327.7z M199.7,327.6
	c0-6.5-2.7-11.4-7.8-11.4c-5.1,0-8,4.8-8,11.4s2.7,11.3,8,11.3C197.2,339,199.7,334.2,199.7,327.6z M232.7,308.3
	c-11.4,0-18.4,7.9-18.4,19.4c0,11.4,6.9,19.3,18.4,19.3c9.9,0,16.2-5.8,16.7-14.5h-9.8c-0.2,3.6-3.2,6.3-6.8,6.2
	c-4.9,0-8-4.3-8-11.2s3.2-11.1,8-11.1c3.6-0.1,6.6,2.7,6.8,6.2h9.8C249,314,242.5,308.3,232.7,308.3L232.7,308.3z M254.8,296.3h10.4
	V323h0.5l12-14.2h11.9L275.8,325l14.6,21.2h-12.2L268,331.2l-2.8,3.2v11.9h-10.4C254.8,346.3,254.8,296.3,254.8,296.3z M308.8,308.3
	c-11.4,0-18.4,7.9-18.4,19.4c0,11.4,6.9,19.3,18.5,19.3c9.9,0,16.2-5.8,16.7-14.5h-9.8c-0.2,3.6-3.3,6.3-6.8,6.2
	c-4.9,0-8-4.3-8-11.2s3.2-11.1,8-11.1c3.6-0.1,6.6,2.7,6.8,6.2h9.7C325.2,314,318.6,308.3,308.8,308.3z M341.3,346.3H331v-50H341
	v19.1h0.5c1.7-4.6,6.3-7.5,11.2-7.1c7.8,0,13,5.3,13,14.1v23.9h-10.4v-22c0.3-1.9-0.3-3.8-1.6-5.2c-1.3-1.4-3.2-2.2-5.1-2.1
	c-3.1-0.1-5.9,1.8-6.9,4.7c-0.3,0.9-0.4,1.9-0.3,2.9C341.3,324.6,341.3,346.3,341.3,346.3z M384.8,324.2
	c-7.4,0.7-14.1,3.3-14.1,11.6c0,7.4,5.3,11.2,12.5,11.2c4.5,0.3,8.8-2,11-5.9h0.3v5.2h9.9V321c0-9-7.6-12.7-15.9-12.7
	c-9,0-14.9,4.3-16.3,11.1l9.6,0.8c1-2.8,3.7-4.5,6.7-4.2c3.5,0,5.5,1.8,5.5,4.9C393.9,323.3,391.4,323.6,384.8,324.2L384.8,324.2z
	 M394,328.7v4.2c-0.1,1.9-1,3.7-2.5,5c-1.5,1.3-3.4,1.9-5.3,1.7c-3.2,0-5.5-1.5-5.5-4.4s2.4-4.4,6.1-4.9
	C389.3,330.2,391.7,329.6,394,328.7z M428.2,346.3h10.6l-0.2-21.7c-0.4-3.8,2.3-7.2,6-7.6c0.4,0,0.7-0.1,1.1,0
	c3.5-0.2,6.5,2.6,6.7,6.1c0,0.4,0,0.8-0.1,1.2v22h10.4v-23.9c0-8.7-5.1-14.1-13-14.1c-4.9-0.3-9.5,2.6-11.3,7.1h-0.4v-6.6h-9.9
	V346.3z"/>
<path class="st0" d="M577.4,308.8h-9.9l0,37.5h10.4v-22.5c-0.3-2.7,1.2-5.2,3.6-6.3c0.8-0.4,1.6-0.6,2.5-0.6
	c2.4-0.1,4.7,1.4,5.4,3.7c0.3,0.7,0.3,1.5,0.3,2.3v23.4h10.1v-22.9c-0.3-3.2,2-6.1,5.2-6.5c0.3,0,0.6,0,0.8,0
	c3.1-0.1,5.7,2.2,5.8,5.3c0,0.3,0,0.6,0,0.9v23.2H622v-25c0.2-6.7-5.1-12.3-11.8-12.5c-4.7-0.1-9,2.4-11.1,6.6h-0.6
	c-1.3-4.5-5.6-7.4-10.2-7.1c-4.7-0.2-8.9,2.7-10.4,7.1h-0.5V308.8z M504.5,308.3c-11.4,0-18.4,7.9-18.4,19.4
	c0,11.4,6.9,19.3,18.6,19.3c9.9,0,16.2-5.8,16.7-14.5h-9.8c-0.2,3.6-3.3,6.3-6.8,6.2c-4.8,0-8-4.3-8-11.2s3.2-11.1,8-11.1
	c3.6-0.1,6.6,2.7,6.8,6.2h9.6C520.9,314,514.3,308.3,504.5,308.3z M471.6,336.9c-2.3,2.3-2.3,6,0,8.3c1.1,1.1,2.6,1.7,4.1,1.7
	c3.2,0,5.8-2.6,5.8-5.8c0-3.2-2.6-5.8-5.8-5.8C474.2,335.2,472.7,335.9,471.6,336.9z M525.2,327.7c0-11.6,7.1-19.4,18.5-19.4
	c11.4,0,18.4,7.7,18.4,19.4s-7,19.3-18.4,19.3C532.2,347,525.2,339.2,525.2,327.7z M551.5,327.6c0-6.5-2.7-11.4-7.8-11.4
	c-5.1,0-8,4.8-8,11.4s2.7,11.3,8,11.3C548.9,339,551.5,334.2,551.5,327.6z"/>
<path class="st1" d="M27.7,312.1l-3,3c-3.5,3.3-3.6,8.8-0.2,12.3c0.1,0.1,0.2,0.2,0.2,0.2l24.5,24.7c0.6,0.6,1.3,1.1,2,1.5v-30
	L27.7,312.1z"/>
<path class="st2" d="M83,312.1l3,3c3.5,3.3,3.6,8.8,0.2,12.3c-0.1,0.1-0.2,0.2-0.2,0.2l-24.5,24.7c-0.6,0.6-1.3,1.1-2,1.5v-30
	C59.5,323.9,83,312.1,83,312.1z"/>
<path class="st3" d="M77.1,305.9l-15.3-15.4c-3.3-3.5-8.9-3.5-12.3-0.2c-0.1,0.1-0.1,0.1-0.2,0.2l-15.4,15.4l21.5,10.7
	C55.4,316.7,77.1,305.9,77.1,305.9z"/>
</svg>
