<?xml version="1.0" encoding="utf-8"?>
<!-- Generator: Adobe Illustrator 25.0.1, SVG Export Plug-In . SVG Version: 6.00 Build 0)  -->
<svg version="1.0" id="Layer_1" xmlns="http://www.w3.org/2000/svg" xmlns:xlink="http://www.w3.org/1999/xlink" x="0px" y="0px"
	 viewBox="0 0 805 531" style="enable-background:new 0 0 805 531;" xml:space="preserve">
<style type="text/css">
	.st0{fill:#fff;}
	.st1{fill:#C5B358;}
	.st2{fill:none;}
</style>
<path class="st0" d="M376.8,238v-33h-22.3v122.4h22.4v-70h13.6V238H376.8z M469.6,271.7c-1.4-5-4.5-9.4-8.8-12.5
	c-4.8-2.9-9.5-4.8-15.4-4.4c-5.9-0.3-11.8,1.5-16.5,5.1c-3.6,3.2-6.4,7.2-8,11.7L469.6,271.7z M492,289.3h-72.2
	c0.4,3,1.4,5.8,2.9,8.4c1.4,2.5,3.3,4.8,5.5,6.6c2.3,2.1,5.1,3.6,8.1,4.4c2.9,1,6,1.5,9.1,1.5c4,0,8-0.7,11.7-2.2
	c3.6-1.8,6.9-4,9.9-6.6l19.1,8.8c-4.3,6.3-10.1,11.3-16.9,14.7c-7.3,3.5-15.4,5.2-23.5,4.8c-6.4,0.3-12.7-0.7-18.7-2.9
	c-5.9-2.2-11-5.9-15.8-10.3c-4.3-4.3-7.6-9.4-9.9-15c-2.2-5.9-3.3-12.1-3.3-18.3c-0.1-6.3,1-12.5,3.3-18.3c2.1-5.8,5.5-11,9.9-15.4
	c4.3-4.4,9.4-7.9,15-10.3c5.6-2.5,11.8-3.7,18-3.3c6.4-0.3,12.7,0.7,18.7,2.9c5.9,2.6,11.4,5.9,15.8,10.6
	c8.8,8.8,13.2,20.9,13.2,35.5L492,289.3z M331.4,249.4c-0.1-1.5-0.3-3-0.7-4.4c-0.6-1.4-1.5-2.6-2.6-3.7c-2-2.2-4.8-3.4-7.7-3.3
	c-1.5,0.1-3,0.3-4.4,0.7c-1.4,0.6-2.6,1.5-3.7,2.6c-1.1,1.1-1.9,2.3-2.6,3.7c-0.4,1.4-0.7,2.9-0.7,4.4v78h22.4V249.4z M210.4,203.5
	h22.4v43.6c3.8-3.6,8.3-6.5,13.2-8.4c4.2-2,8.8-3,13.5-2.9c4.1,0,8.2,0.7,12.1,2.2c3.9,1.5,7.4,3.9,10.3,7
	c5.1,5.1,7.7,13.2,7.7,23.5v59h-22v-39.2c0.4-7-0.1-14-1.5-20.9c-0.6-3.3-2.4-6.3-5.1-8.4c-2.6-1.8-5.7-2.7-8.8-2.6
	c-2.1,0-4.2,0.4-6.2,1.1c-2,0.7-3.9,1.9-5.5,3.3c-3.3,3.7-5.9,7.7-6.6,12.4c-1.1,6-1.5,12.2-1.1,18.3v35.9h-22.3V203.5z M66,238h22
	l18,50.9l19.1-50.9h13.5l19.1,50.2l18-50.2h22l-32.6,89.4h-14l-19.4-50.9l-19.4,50.9H98.3L66,238z"/>
<path class="st1" d="M320.4,201.4c1.9,0,3.7,0.4,5.5,1.1c1.6,0.8,3.1,1.8,4.4,2.9c1.4,1.3,2.5,3,3.3,4.8c0.7,1.9,1.1,3.9,1.1,5.9
	c0,1.9-0.4,3.7-1.1,5.5c-0.7,1.8-1.8,3.3-3.3,4.4c-1.1,1.5-2.7,2.6-4.4,3.3c-3.5,1.5-7.5,1.5-11,0c-1.8-0.8-3.4-1.9-4.8-3.3
	c-1.3-1.4-2.3-3-2.9-4.8c-0.7-1.7-1.1-3.6-1.1-5.5c-0.1-1.9,0.3-3.8,1.1-5.5c0.5-1.8,1.5-3.5,2.9-4.8c1.4-1.4,3-2.5,4.8-3.3
	C316.7,201.6,318.5,201.4,320.4,201.4z M578.1,267.7l1.1-1.5v1.5H578.1z M579.2,271.3h2.2v-1.8h0.7v-1.8h-0.7v-5.5h-2.2l-3.7,5.5
	v1.9h3.7L579.2,271.3z M571.9,271.7l-1.9-1.1l3-5.9h-3.3v-2.2h5.8v1.1L571.9,271.7z M590.6,316.4h-6.2v-1.5l2.6-2.6
	c0.5-0.4,0.8-0.9,1.1-1.5c0.4-0.4,0.4-0.4,0.4-0.7s0-0.4-0.4-0.7h-0.8l-0.4,0.4v1.1h-2.2v-0.4c-0.4-1.4,0.5-2.9,1.9-3.2
	c0.3-0.1,0.7-0.1,1-0.1c0.8,0,1.1,0,1.5,0.4s0.7,0.7,1.1,1.1s0.4,0.7,0.4,1.5c0.1,0.5-0.1,1-0.4,1.5c-0.4,0.7-1.1,1.5-1.5,2.2
	l-0.4,0.4h2.2L590.6,316.4z M572.2,251.2h5.9v1.5l-3.7,7.7l-1.8-0.7l2.9-6.2h-3.3V251.2z M591.3,297.7l-3.7,7.7l-1.8-1.1l3-5.9h-3.3
	v-2.2h5.9L591.3,297.7z M575.9,228.8h6.2l-0.4,1.1l-3.7,8.1l-1.8-1.1l2.9-5.9h-3.3V228.8z M567.1,251.2h2.9v8.8h-2.2v-6.6H566
	L567.1,251.2z M567.8,313.5c0.2-0.2,0.5-0.5,0.7-0.7c0.4,0,0.4,0,0.7,0.4v1.1h-1.1C568.2,313.8,567.8,313.8,567.8,313.5L567.8,313.5
	z M568.5,316.4c0.8-0.1,1.5-0.3,2.2-0.7c0.4-0.7,0.6-1.4,0.7-2.2c0-0.7-0.3-1.3-0.7-1.8c-0.4-0.4-0.9-0.6-1.5-0.7l1.1-2.9l-1.8-0.7
	l-2.2,4.4c0,0.4-0.4,0.7-0.4,1.1c0,0.3-0.2,0.5-0.4,0.7c0.1,0.8,0.5,1.6,1.1,2.2C567.2,316.1,567.9,316.4,568.5,316.4L568.5,316.4z
	 M590.5,235.1c0-0.4,0-0.7,0.4-0.7l0.4-0.4c0.2,0,0.4,0.2,0.4,0.3c0,0,0,0,0,0c0.4,0,0.4,0.4,0.4,0.7l0,0c0,0.4,0,0.4-0.4,0.4
	c0,0.2-0.2,0.4-0.3,0.4c0,0,0,0,0,0l-0.4-0.4C590.7,235.4,590.6,235.3,590.5,235.1C590.6,235.1,590.6,235.1,590.5,235.1L590.5,235.1
	z M591.3,237.6c0.8,0.1,1.6-0.2,2.2-0.7c0.5-0.5,0.7-1.2,0.7-1.8c0-0.8-0.3-1.6-0.7-2.2c-0.4-0.4-0.9-0.6-1.5-0.7l1.1-2.6l-1.8-1.1
	l-2.2,4.4c0,0.4-0.4,0.7-0.4,1.1c-0.3,0.3-0.4,0.7-0.4,1.1c0,0.8,0.4,1.5,1.1,1.8C589.8,237.6,590.6,237.6,591.3,237.6L591.3,237.6z
	 M586.1,221.9c0.1,0.8-0.1,1.5-0.4,2.2c0,0.4-0.4,0.4-0.7,0.4s-0.4,0-0.7-0.4c0-0.8-0.4-1.5,0-1.9v-1.8c0-0.4,0-0.4,0.4-0.7h0.4
	c0.4,0,0.4,0,0.7,0.4C586.1,220.6,586.2,221.2,586.1,221.9L586.1,221.9z M586.9,217.9c-0.6-0.3-1.2-0.4-1.8-0.4
	c-0.9-0.1-1.7,0.3-2.2,1.1c-0.8,0.9-1,2.1-0.7,3.3c-0.3,0.9-0.1,1.8,0.4,2.6c0,0.7,0.4,1.1,1.1,1.5c0.4,0.4,0.9,0.6,1.5,0.7
	c0.7,0,1.3-0.3,1.8-0.7c0.5-0.4,0.8-0.9,1.1-1.5c0.3-0.8,0.4-1.7,0.4-2.6c0.1-0.9-0.1-1.7-0.4-2.6
	C587.7,218.8,587.3,218.2,586.9,217.9L586.9,217.9z M585.8,213.1c0.4-0.7,0.4-1.1,0-1.5c-0.3-0.3-0.7-0.4-1.1-0.4
	c0,0.2-0.2,0.4-0.3,0.4c0,0,0,0,0,0v0.4l-1.8-0.7l1.1-4.8h4.4v1.8h-2.6l-0.4,0.7c0.9,0,1.7,0.4,2.2,1.1c0.8,0.4,0.8,1.1,0.8,1.8
	c0,0.9-0.3,1.8-0.8,2.6c-1.3,1-3.1,1-4.4,0c-0.4-0.6-0.8-1.2-1.1-1.8v-0.4h2.2l0.4,0.4c0,0.2,0.2,0.4,0.3,0.4c0,0,0,0,0,0
	c0.2,0.3,0.7,0.4,1,0.1C585.7,213.2,585.7,213.1,585.8,213.1L585.8,213.1z M603,232.2h-2.2v-0.4c0-0.9,0.4-1.7,1.1-2.2
	c0.5-0.7,1.3-1,2.2-1.1c0.4,0,1.1,0.4,1.5,0.4l1.1,1.1c0,0.4,0.4,1.1,0.4,1.5s-0.4,1.1-0.4,1.5c-0.5,0.8-1.1,1.6-1.9,2.2l-0.4,0.4
	h2.6v2.2h-6.2v-1.1l2.6-2.9c0.4-0.4,0.7-0.7,1.1-1.1c0-0.4,0.4-0.7,0.4-1.1c-0.2-0.2-0.5-0.5-0.7-0.7c-0.4,0-0.7,0-0.7,0.4
	c-0.2,0.2-0.3,0.5-0.4,0.7V232.2z M591.6,219.7h-2.9v-2.2h5.8v1.5l-3.7,7.7l-2.2-1.1L591.6,219.7z M600.8,286.4l-3.7,7.7l-2.2-0.7
	l3.3-6.2h-3.3v-2.2h5.9V286.4z M591.3,302.1v-0.4h2.2v0.4c0,0.3,0.2,0.5,0.4,0.7c0.4,0.4,1.1,0.4,1.5,0c0.3-0.2,0.4-0.7,0.1-1
	c0,0-0.1-0.1-0.1-0.1H595c-0.3-0.3-0.7-0.4-1.1-0.4h-0.4v-2.2h1.1c0.2,0,0.4-0.2,0.4-0.3c0,0,0,0,0,0v-0.3l0,0l-0.4-0.4
	c-0.4,0-0.4,0-0.4,0.4c-0.4,0-0.4,0-0.4,0.4h-2.2v-0.4c0-0.8,0.4-1.1,1.1-1.9c1-1,2.6-1,3.7,0c0.4,0.7,0.7,1.1,0.7,1.9
	c0,0.7-0.3,1.3-0.7,1.8c0.4,0,0.4,0.4,0.7,0.4c0.3,0.4,0.4,1,0.4,1.5c0,1.1,0,1.8-0.7,2.2c-0.6,0.6-1.4,0.8-2.2,0.7
	c-1.1,0-1.8,0-2.2-0.7C591.6,303.9,591.2,303,591.3,302.1L591.3,302.1z M598.3,219.7H595v-2.2h5.9v1.5l-3.7,7.7l-1.8-1.1
	L598.3,219.7z M589.8,262.5h4.4v2.2h-2.6l-0.4,0.7h0.4c0.7,0,1.5,0,1.8,0.7c0.7,0.7,1.1,1.5,0.7,2.2c-0.2,1.8-1.7,3.1-3.5,2.9
	c-0.4,0-0.9-0.2-1.2-0.4c-0.7-0.7-1.1-1.1-1.1-1.8l-0.4-0.4h2.6c0,0.4,0,0.4,0.4,0.4c0.2,0.3,0.6,0.4,0.9,0.2c0.1,0,0.1-0.1,0.2-0.2
	c0.4-0.4,0.4-1,0-1.5c-0.2-0.3-0.6-0.4-0.9-0.2c-0.1,0-0.1,0.1-0.2,0.2l-0.4,0.4l-1.8-0.4L589.8,262.5z M581.4,298.8v-0.3
	c0.4-0.4,0.4-0.4,0.7-0.4c0.2,0,0.4,0.2,0.4,0.4c0,0,0,0,0,0l0.4,0.4c0,0.4-0.4,0.4-0.4,0.7h-1.1V298.8z M582.1,305.4l2.2-4.4
	c0-0.4,0.4-0.7,0.4-1.1s0.4-0.7,0.4-1.1c0-0.8-0.4-1.5-1.1-1.9c-0.4-0.4-0.4-0.7-1.1-0.7c-0.4,0-0.7-0.4-1.1-0.4
	c-0.4,0.4-0.7,0.4-1.1,0.7c-0.4,0-0.7,0.4-1.1,0.7c-0.3,0.4-0.4,1-0.4,1.5c0,0.7,0,1.5,0.7,1.8c0.4,0.7,0.7,1.1,1.5,1.1l-1.5,2.6
	L582.1,305.4z M585.8,243.5V242H585c-0.4,0-0.4,0-0.4,0.4c-0.4,0-0.4,0.4-0.4,0.7v0.4h-2.2v-0.4c0-0.9,0.3-1.8,0.7-2.6
	c0.7-0.4,1.4-0.7,2.2-0.7c0.7,0,1.1,0,1.5,0.4c0.7,0.4,0.7,0.7,1.1,1.1s0.4,0.7,0.4,1.5c0.1,0.5-0.1,1-0.4,1.5
	c-0.4,0.7-1.1,1.5-1.5,2.2l-0.4,0.4h2.2v1.9h-6.2v-1.1l2.6-2.6C585,244.7,585.5,244.1,585.8,243.5z M581.8,254.9
	c0.2-0.2,0.3-0.4,0.4-0.7c0-0.4,0-0.7-0.4-0.7l-0.4-0.4c-0.4,0.4-0.4,0.4-0.7,0.4c0,0.3-0.2,0.5-0.4,0.7v0.4h-2.2l0.4-0.4
	c-0.2-1.4,0.8-2.7,2.2-2.9c0.2,0,0.5,0,0.7,0c0.5-0.1,1,0.1,1.5,0.4c0.4,0,0.7,0.4,1.1,1.1c0,0.4,0.4,0.7,0.4,1.1
	c0,0.7-0.4,1.1-0.4,1.8c-0.7,0.7-1.1,1.5-1.8,1.8l-0.4,0.4h2.6v2.2h-6.2v-1.1l2.6-2.6C581,255.9,581.4,255.2,581.8,254.9
	L581.8,254.9z M591,287.9v-0.7c0.4-0.4,0.4-0.4,0.7,0c0.4,0,0.4,0.4,0.4,0.7v0.4c-0.4,0.4-0.4,0.4-0.7,0.4c0-0.2-0.2-0.4-0.3-0.4
	c0,0,0,0,0,0V287.9z M591.3,294.1l2.2-4.4c0.4-0.4,0.7-0.7,0.7-1.1v-0.7c0-1.1,0-1.5-0.7-2.2c-0.4-0.4-0.7-0.4-1.1-0.7h-1.1
	c-0.5-0.1-1,0.1-1.5,0.4c-0.4,0-0.4,0.4-0.7,0.7c-0.3,0.6-0.4,1.2-0.4,1.8c0,0.6,0.1,1.3,0.4,1.8c0.7,0.4,1.1,0.7,1.8,0.7l-1.5,2.5
	L591.3,294.1z M593.9,278.7l1.1-1.1v1.1H593.9z M597.2,282.7v-1.8h0.7v-2.2h-0.7v-5.2H595l-3.7,5.5v1.8h3.7v1.8L597.2,282.7z
	 M598.3,235.5c0.4-0.4,0.4-1,0-1.5c-0.2-0.3-0.6-0.4-0.9-0.2c-0.1,0-0.1,0.1-0.2,0.2h-0.4v0.4L595,234l1.1-5.1h4.4v2.2h-2.6
	l-0.4,0.7h0.4c0.7,0,1.5,0,1.8,0.7c1.2,0.9,1.5,2.6,0.5,3.9c-0.2,0.2-0.3,0.4-0.5,0.5c-0.6,0.6-1.4,0.8-2.2,0.7
	c-0.6,0.1-1.3,0-1.8-0.4c-0.7-0.7-1.1-1.1-1.1-1.8l-0.4-0.4h2.6c0,0.4,0,0.4,0.4,0.4c0.2,0.3,0.7,0.3,1,0.1
	C598.2,235.5,598.2,235.5,598.3,235.5L598.3,235.5z M584.3,234l1.1-1.5v1.5H584.3z M585.4,228.5l-3.7,5.5v1.8h3.7v1.8h2.2v-1.8h0.8
	V234h-0.8v-5.5L585.4,228.5z M601.9,280.2l-0.4,0.3h2.2v2.2h-6.2v-1.5l2.6-2.6c0.7-0.4,1.1-0.7,1.1-1.5c0.4-0.4,0.4-0.4,0.4-0.7
	v-0.7h-0.7c-0.4,0-0.4,0-0.7,0.4v1.1h-2.2v-0.4c0-0.9,0.3-1.8,0.7-2.6c0.7-0.4,1.4-0.7,2.2-0.7c0.7,0,1.1,0,1.5,0.4l1.1,1.1
	c0.4,0.4,0.4,0.7,0.4,1.5c0.1,0.5-0.1,1-0.4,1.5C603,278.7,602.3,279.4,601.9,280.2L601.9,280.2z M584.3,291.2c0-0.4,0-0.4,0.4-0.7
	h0.7c0.4,0.4,0.4,0.4,0.4,0.7s-0.4,0.4-0.4,0.7c-0.4,0-0.7,0-0.7-0.4C584.5,291.6,584.3,291.4,584.3,291.2
	C584.3,291.2,584.3,291.1,584.3,291.2L584.3,291.2z M586.9,293c0.7-0.3,1.1-1.1,1.1-1.8c-0.1-0.8-0.3-1.5-0.8-2.2
	c-0.7-0.4-1.1-0.7-1.5-0.7l1.1-2.6l-1.8-1.1l-2.2,4.4c-0.4,0.4-0.4,1.1-0.7,1.5c-0.2,0.9,0.1,1.9,0.7,2.6c0.6,0.6,1.3,1,2.2,1.1
	C585.8,294.1,586.5,293.6,586.9,293L586.9,293z M592.4,244.6c0.1,0.6,0,1.3-0.4,1.8c0,0.4-0.4,0.4-0.7,0.4s-0.4,0-0.4-0.4
	c-0.4-0.7-0.7-1.1-0.4-1.8v-1.8c0.2-0.2,0.3-0.5,0.4-0.7h0.4c0.4,0,0.4,0,0.7,0.4C592.3,243.1,592.4,243.8,592.4,244.6L592.4,244.6z
	 M593.1,240.2c-0.7,0-1.1-0.4-1.8-0.4c-0.9-0.1-1.8,0.3-2.2,1.1c-0.8,1-1.1,2.4-0.7,3.7c-0.1,0.9,0.1,1.7,0.4,2.6
	c0.1,0.6,0.5,1.2,1.1,1.5c0.4,0.3,0.9,0.4,1.5,0.4c0.6,0.1,1.3,0,1.8-0.4c0.4-0.4,0.7-1.1,1.1-1.5c0.3-0.8,0.4-1.7,0.4-2.6
	c0.1-1-0.1-2-0.4-2.9C593.8,241.3,593.5,240.5,593.1,240.2L593.1,240.2z M588,282.7c-1.5-0.1-2.7-1.1-3-2.6v-0.4h2.2v0.4l0.4,0.4
	c0.2,0.3,0.7,0.4,1,0.1c0,0,0.1-0.1,0.1-0.1c0.4-0.7,0.4-1.1,0-1.5c0-0.4-0.4-0.4-0.7-0.4l-0.4,0.4l-0.4,0.4l-1.5-0.7l1.1-4.8h4v1.8
	h-2.6v0.7c0.9,0.1,1.6,0.4,2.2,1.1c0.5,0.6,0.8,1.4,0.7,2.2c-0.1,0.9-0.5,1.6-1.1,2.2C589.5,282.5,588.8,282.7,588,282.7L588,282.7z
	 M581.4,276.5v-0.7h1.1c0,0.4,0.4,0.4,0.4,0.7c0,0.2-0.2,0.4-0.4,0.4c0,0,0,0,0,0c0,0.2-0.2,0.4-0.3,0.4c0,0,0,0,0,0
	c-0.4,0-0.4,0-0.7-0.4L581.4,276.5z M579.2,276.5c-0.1,0.7,0.2,1.4,0.7,1.8c0.4,0.5,0.9,0.8,1.5,1.1l-1.5,2.6l2.2,0.7l2.2-4.4
	c0-0.4,0.4-0.7,0.4-1.1s0.4-0.4,0.4-0.7c-0.1-0.8-0.4-1.6-1.1-2.2c-0.4,0-0.4-0.4-1.1-0.4c-0.3-0.3-0.7-0.4-1.1-0.4
	c-0.4,0-0.7,0.4-1.1,0.4l-1.1,1.1C579.2,275.4,579.2,275.7,579.2,276.5z M588.7,257.4l-0.4,0.4h2.2v2.2h-6.2v-1.1l2.6-2.6
	c0.4-0.4,0.7-1.1,1.1-1.5c0.2-0.2,0.3-0.5,0.4-0.7c0-0.4,0-0.7-0.4-0.7l-0.4-0.4c-0.4,0.4-0.4,0.4-0.7,0.4v1.1h-2.2v-0.4
	c0.1-0.8,0.3-1.5,0.7-2.2c0.6-0.6,1.4-0.8,2.2-0.7c0.8,0,1.1,0,1.5,0.4c0.4,0,0.7,0.4,1.1,1.1c0.3,0.3,0.4,0.7,0.4,1.1
	c0.1,0.6-0.1,1.3-0.4,1.8C589.8,256.3,589.3,256.9,588.7,257.4L588.7,257.4z M598.2,246.1c0,0.4,0,0.7-0.4,0.7c-0.4,0.4-0.4,0-0.7,0
	c-0.3-0.2-0.4-0.6-0.2-0.9c0-0.1,0.1-0.1,0.2-0.2c0-0.2,0.1-0.4,0.3-0.4c0,0,0,0,0,0c0.4,0,0.4,0,0.7,0.4V246.1z M597.5,239.9
	l-2.2,4.4c0,0.4-0.4,0.7-0.4,1.1c-0.4,0.6-0.4,1.3,0,1.8c0,0.4,0.4,0.7,0.7,1.1c0.3,0.5,0.9,0.7,1.5,0.8c0.5,0.1,1-0.1,1.5-0.4
	c0.6,0,1.1-0.3,1.5-0.8c0.3-0.6,0.4-1.2,0.4-1.8c0-0.7-0.3-1.3-0.7-1.8c-0.4-0.7-1.1-0.7-1.5-1.1l1.5-2.6L597.5,239.9z M585.8,268.8
	L585.8,268.8c0,0.4,0,0.4-0.4,0.4c0,0.2-0.2,0.4-0.3,0.4c0,0,0,0,0,0l-0.4-0.4c-0.3-0.2-0.4-0.6-0.2-0.9c0-0.1,0.1-0.1,0.2-0.2
	c0-0.2,0.1-0.4,0.3-0.4c0.2,0,0.4,0.1,0.4,0.3c0,0,0,0.1,0,0.1c0.4,0,0.4,0,0.4,0.4V268.8z M585,262.2l-2.2,4.4
	c-0.3,0.3-0.4,0.7-0.4,1.1c-0.3,0.3-0.4,0.7-0.4,1.1c0,0.7,0.3,1.3,0.7,1.8c0.7,0.4,1.1,0.7,1.5,0.7c0.7,0.4,1.5,0,1.8,0
	c0.4-0.4,1.1-0.7,1.5-1.1c0-0.4,0.4-1.1,0.4-1.5c0-0.8-0.3-1.6-0.8-2.2c-0.4-0.4-0.9-0.6-1.5-0.7l1.1-2.6L585,262.2z M578.1,212.4
	c0-0.2,0.2-0.4,0.3-0.4c0,0,0,0,0,0c0-0.4,0-0.4,0.4-0.4c0.2,0.2,0.5,0.5,0.7,0.7c0,0.3-0.2,0.5-0.4,0.7c-0.2,0.2-0.5,0.2-0.7,0
	c0,0,0,0,0,0C578.1,212.7,578.1,212.7,578.1,212.4L578.1,212.4L578.1,212.4z M578.8,215.3c0.7,0,1.3-0.3,1.8-0.7
	c0.6-0.6,1-1.3,1.1-2.2c0-0.8-0.4-1.5-1.1-1.8c-0.4-0.7-0.7-0.7-1.5-1.1l1.5-2.6l-1.8-0.7l-2.2,4.4c-0.4,0.4-0.4,0.7-0.7,1.1
	c-0.4,1.1,0,1.8,0.7,2.9C577.3,215,578,215.2,578.8,215.3L578.8,215.3z M594.6,253.8c0.3,0.6,0.4,1.2,0.4,1.8
	c0.1,0.8-0.1,1.5-0.4,2.2c-0.4,0.4-0.4,0.4-0.7,0.4s-0.4,0-0.7-0.4c-0.1-0.6-0.2-1.2-0.4-1.8c0.1-0.6,0.2-1.2,0.4-1.8
	c0-0.4,0-0.4,0.4-0.7h0.4C594.2,253.4,594.2,253.4,594.6,253.8L594.6,253.8z M591.7,252.3c-0.7,1-1.1,2.1-1.1,3.3
	c0,0.9,0.3,1.8,0.7,2.6c0,0.6,0.3,1.1,0.7,1.5c0.6,0.3,1.2,0.6,1.8,0.7c0.7,0,1.1-0.4,1.8-0.7c0.5-0.4,0.8-0.9,1.1-1.5
	c0.4-1.7,0.4-3.4,0-5.1c-0.3-0.6-0.6-1.1-1.1-1.5c-0.6-0.3-1.2-0.4-1.8-0.4C593,251.1,592.1,251.5,591.7,252.3L591.7,252.3
	L591.7,252.3z M598.7,268.8l-0.4,0.4h2.6v2.2h-6.2v-1.1l2.6-2.9l1.1-1.1c0-0.4,0.4-0.7,0.4-1.1l-0.4-0.4c-0.4-0.4-0.4-0.4-0.7-0.4
	c-0.2,0-0.4,0.1-0.4,0.3c0,0,0,0,0,0c-0.4,0.4-0.4,0.4-0.4,0.7v0.4h-2.2v-0.4c0-0.9,0.4-1.7,1.1-2.2c0.4-0.8,1.3-1.2,2.2-1.1
	c0.4,0,1.1,0.4,1.5,0.4l1.1,1.1c0,0.4,0.4,1.1,0.4,1.5c-0.1,0.5-0.3,1.1-0.7,1.5C599.8,267.4,599.3,268.2,598.7,268.8L598.7,268.8z
	 M560.9,321.5l-0.4,0.4c0,0.2-0.2,0.4-0.3,0.4c0,0,0,0,0,0c-0.4,0-0.4,0-0.7-0.4v-1.1h1.1C560.5,321.1,560.9,321.1,560.9,321.5z
	 M560.1,318.6c-0.6-0.1-1.3,0.1-1.8,0.4c-0.5,0.4-0.8,0.9-1.1,1.5v1.1c0,0.7,0.2,1.4,0.7,1.9c0.4,0.5,0.9,0.7,1.5,0.7l-1.5,2.6
	l2.2,1.1l2.2-4.4c0-0.4,0.4-0.8,0.4-1.1v-0.7c0-1.1,0-1.5-0.7-2.2C561.5,318.8,560.8,318.6,560.1,318.6L560.1,318.6z M571.9,323.7
	l1.1-1.5v1.5H571.9z M575.2,318.6H573l-3.7,5.1v2.2h3.7v1.5h2.2v-1.5h0.3v-2.2h-0.4L575.2,318.6z M569.3,320l-3.7,7.7l-1.8-0.7
	l2.9-6.2h-3.3v-2.2h5.9V320z M554.3,324.8c0,0.4,0,0.4-0.4,0.7c-0.4,0-0.8,0-0.8-0.4c-0.3-0.2-0.4-0.6-0.2-0.9
	c0-0.1,0.1-0.1,0.2-0.2h0.8C554.3,324.5,554.3,324.5,554.3,324.8L554.3,324.8z M554.3,321.8l1.1-2.6l-1.8-1.1l-2.2,4.4
	c0,0.4-0.4,1.1-0.4,1.5c-0.4,0.6-0.4,1.3,0,1.8c0,0.4,0.3,0.7,0.7,0.7c0.4,0.7,0.7,0.7,1.5,1.1c0.5,0.1,1.1-0.1,1.5-0.4
	c0.7,0,1.1-0.4,1.5-1.1c0.4-0.4,0.4-0.7,0.4-1.5c-0.1-0.8-0.3-1.5-0.7-2.2C555.3,322.2,554.8,321.9,554.3,321.8L554.3,321.8z
	 M541.8,324.8v0.4h-0.4c0,0.2-0.2,0.4-0.3,0.4c0,0,0,0,0,0c-0.4,0-0.4,0-0.7-0.4v-1.1h1.1C541.8,324.5,541.8,324.5,541.8,324.8
	L541.8,324.8z M541.5,321.8l1.5-2.6l-1.8-1.1l-2.2,4.4c-0.4,0.4-0.4,1.1-0.7,1.5c0,0.6,0.1,1.3,0.4,1.8c0,0.3,0.2,0.5,0.4,0.7
	c0.4,0.4,0.7,0.7,1.1,0.7c0.3,0.3,0.7,0.4,1.1,0.4c0.7,0,1.1-0.4,1.5-0.4c0.4-0.4,0.7-0.7,0.7-1.1c0.4-0.4,0.7-0.9,0.7-1.5
	c-0.1-0.9-0.5-1.7-1.1-2.2C542.5,322.1,542,321.9,541.5,321.8L541.5,321.8z M546.6,324c0.4,0,0.4-0.4,0.7-0.4c0.3,0,0.5,0.2,0.7,0.4
	c0.4,0.4,0.4,0.4,0.4,0.7c0,0.2-0.2,0.4-0.4,0.4c0,0,0,0,0,0c-0.4,0.4-1,0.4-1.5,0l0,0c0-0.2-0.2-0.4-0.4-0.4c0,0,0,0,0,0
	C546.2,324.5,546.6,324.5,546.6,324L546.6,324z M547.7,321.5c0,0.4,0,0.4-0.4,0.4s-0.4-0.4-0.4-0.7l0,0v-0.4h0.7l0.4,0.4l0,0v0.4
	L547.7,321.5z M549.5,322.6c0.2-0.2,0.3-0.5,0.4-0.7c0.4-0.7,0.4-1.5,0-2.2c-0.4-0.4-0.7-0.7-1.1-0.7c-0.8-0.7-2.1-0.7-2.9,0
	c-0.4,0-0.7,0.3-0.7,0.7c-0.3,0.4-0.4,0.9-0.4,1.5v1.1l0.4,0.4c-0.6,0.6-0.8,1.4-0.7,2.2c-0.1,0.5,0.1,1,0.4,1.5
	c0,0.4,0.4,0.7,1.1,1.1c0.4,0.3,0.9,0.4,1.5,0.4c0.7,0,1.1-0.4,1.8-0.4l1.1-1.1c0.4-0.9,0.4-2,0-2.9
	C549.9,323.4,549.9,323,549.5,322.6L549.5,322.6z M541.8,313.5v0.4c-0.2,0-0.4,0.2-0.4,0.4c0,0,0,0,0,0h-1.1v-1.1
	c0.4-0.4,0.4-0.4,0.7-0.4C541.3,313,541.6,313.2,541.8,313.5L541.8,313.5L541.8,313.5z M541.4,310.9l1.5-2.9l-1.8-0.7l-2.2,4.4
	c-0.4,0.4-0.4,0.7-0.7,1.1c-0.1,0.6,0,1.3,0.4,1.8c0,0.4,0.4,0.7,0.4,1.1c0.4,0.4,0.7,0.4,1.1,0.7h1.1c0.7,0,1.1,0,1.5-0.4
	s0.7-0.4,0.7-0.7c0.4-0.7,0.7-1.1,0.7-1.8c0-0.8-0.4-1.5-1.1-1.8C542.6,311.2,542,310.9,541.4,310.9L541.4,310.9z M587.2,322.3
	c0.6,0.6,0.9,1.4,0.8,2.2c0,0.8-0.2,1.6-0.8,2.2c-0.6,0.6-1.3,1-2.2,1.1c-0.8-0.1-1.5-0.3-2.2-0.7c-0.4-0.6-0.8-1.2-1.1-1.8v-0.4
	h2.6c0,0.4,0,0.4,0.4,0.7c0.4,0,0.8-0.1,1.1-0.4c0.4-0.4,0.4-0.7,0-1.5c-0.4,0-0.7-0.4-1.1,0l-0.4,0.4l-1.8-0.4l1.1-5.1h4.4v2.2
	h-2.6l-0.4,0.7C585.8,321.6,586.6,321.8,587.2,322.3L587.2,322.3z M608.1,300.7c0.1,0.8-0.1,1.5-0.4,2.2c-0.2,0.2-0.5,0.3-0.7,0.4
	c-0.4,0-0.4-0.4-0.7-0.4c0-0.7-0.4-1.5,0-2.2v-1.5c0-0.4,0-0.7,0.4-0.7c0-0.2,0.2-0.4,0.3-0.4c0,0,0,0,0,0c0.4,0,0.4,0,0.7,0.4
	C608.1,299.2,608.2,299.9,608.1,300.7L608.1,300.7z M608.9,296.6c-0.7-0.4-1.1-0.7-1.8-0.7c-1,0-1.8,0.6-2.2,1.5
	c-0.7,0.9-1,2.2-0.7,3.3c-0.1,0.9,0,1.8,0.4,2.6c0,0.7,0.4,1.1,1.1,1.5c0.4,0.3,0.9,0.4,1.5,0.4c0.6,0.1,1.3,0,1.8-0.4
	c0.5-0.4,0.8-0.9,1.1-1.5c0.4-1.7,0.4-3.4,0-5.1C609.7,297.5,609.3,297,608.9,296.6L608.9,296.6z M601.5,302.8h2.2v2.2h-6.2v-1.1
	l2.6-2.9c0.7-0.4,1.1-0.7,1.1-1.1c0.3-0.3,0.4-0.7,0.4-1.1v-0.3c-0.4-0.4-0.4-0.4-0.7-0.4s-0.4,0-0.7,0.4v1h-2.2v-0.4
	c0-0.8,0.3-1.6,0.7-2.2c0.6-0.6,1.3-1,2.2-1.1c0.7,0,1.1,0.4,1.5,0.4l1.1,1.1c0.3,0.4,0.4,1,0.4,1.5c0.1,0.6-0.1,1.3-0.4,1.8
	c-0.4,0.7-1.1,1.1-1.5,1.8L601.5,302.8z M611,291.1c0,0.4-0.4,0.4-0.7,0.7h-0.4l-0.4-0.4c-0.3-0.2-0.4-0.6-0.2-0.9
	c0-0.1,0.1-0.1,0.2-0.2h1.1C610.7,290.7,611.1,290.7,611,291.1L611,291.1z M612.1,288.9c-0.4-0.5-0.9-0.7-1.5-0.7l1.5-2.6l-1.8-1.1
	l-2.2,4.4c-0.4,0.4-0.4,1.1-0.7,1.5c-0.3,0.9,0,2,0.7,2.6c0.4,0.7,1.1,0.7,1.5,1.1c0.6,0.1,1.3-0.1,1.8-0.4c0.4,0,0.7-0.4,1.1-1.1
	c0.4-0.4,0.4-0.7,0.4-1.5C613.3,290.4,612.9,289.6,612.1,288.9L612.1,288.9z M578,220.8h-2.2v-0.4c0.1-0.8,0.3-1.5,0.7-2.2
	c0.6-0.6,1.4-0.8,2.2-0.7c0.7,0,1.1,0,1.5,0.4c0.4,0,0.7,0.4,1.1,0.7c0.3,0.4,0.4,1,0.4,1.5c0.1,0.6-0.1,1.3-0.4,1.8
	c-0.4,0.7-0.9,1.3-1.5,1.8l-0.4,0.4h2.2v2.2h-6.2v-1.1l2.6-2.6c0.4-0.4,1.1-1.1,1.1-1.5c0.2-0.2,0.3-0.5,0.4-0.7v-0.7
	c-0.4,0-0.4-0.4-0.7-0.4s-0.4,0.4-0.7,0.4L578,220.8L578,220.8z M531.8,318.6h5.9v1.5l-3.7,7.7l-1.8-0.7l2.9-6.2h-3.3L531.8,318.6z
	 M579.5,324.8v0.4h-0.4c0,0.2-0.2,0.4-0.3,0.4c0,0,0,0,0,0c-0.4,0-0.4,0-0.4-0.4c-0.3-0.2-0.4-0.7-0.1-1c0,0,0.1-0.1,0.1-0.1h0.7
	C579.5,324.5,579.5,324.5,579.5,324.8L579.5,324.8L579.5,324.8z M579.1,321.8l1.5-2.6l-1.8-1.1l-2.2,4.4c-0.4,0.4-0.4,1.1-0.7,1.5
	c-0.3,0.9,0,2,0.7,2.6c0.4,0.7,1.1,0.7,1.5,1.1c0.6,0.1,1.3-0.1,1.8-0.4c0.4,0,0.7-0.4,1.1-1.1c0.4-0.4,0.7-0.9,0.7-1.5
	c-0.1-0.9-0.5-1.7-1.1-2.2C580.3,322.1,579.7,321.9,579.1,321.8L579.1,321.8z M594.5,314.2h2.2v2.2h-6.2v-1.5l2.6-2.6
	c0.7-0.4,1.1-0.7,1.1-1.5c0.4-0.4,0.4-0.4,0.4-0.7v-0.7h-0.7c-0.4,0-0.4,0-0.4,0.4c-0.4,0-0.4,0.4-0.4,0.7v0.4h-2.2v-0.3
	c-0.4-1.4,0.5-2.9,2-3.2c0.3-0.1,0.6-0.1,1-0.1c0.7,0,1.1,0,1.5,0.4l1.1,1.1c0.4,0.4,0.4,0.7,0.4,1.5c0.1,0.5-0.1,1-0.4,1.5
	c-0.4,0.7-1.1,1.5-1.5,2.2L594.5,314.2z M592,325.5h2.6v1.8h-6.2v-1.1l2.6-2.6c0.4-0.4,0.7-1.1,1.1-1.5v-1.5c-0.4,0-0.4-0.4-0.7,0
	h-0.4c-0.2,0.2-0.3,0.5-0.4,0.7v0.4h-2.2v-0.3c0.1-0.9,0.5-1.6,1.1-2.2c0.6-0.5,1.4-0.8,2.2-0.7c0.5,0,1,0.1,1.5,0.4
	c0.4,0,0.7,0.4,0.7,1.1c0.3,0.3,0.4,0.7,0.4,1.1c0.1,0.6-0.1,1.3-0.4,1.9c-0.3,0.8-0.8,1.4-1.5,1.8L592,325.5z M601.1,312
	c0.1,0.6,0,1.3-0.4,1.8c0,0.2-0.2,0.4-0.3,0.4c0,0,0,0,0,0h-0.7v-0.4c-0.5-0.5-0.6-1.2-0.4-1.8v-1.8c0.2-0.2,0.3-0.5,0.4-0.7h0.4
	c0.4,0,0.4,0,0.7,0.4C601.1,310.5,601.2,311.2,601.1,312L601.1,312z M601.9,307.6c-0.7,0-1.1-0.4-1.8-0.4c-1-0.1-1.9,0.5-2.2,1.5
	c-0.8,0.9-1.1,2.1-0.7,3.3c-0.1,0.9,0.1,1.7,0.4,2.6c0.1,0.6,0.5,1.2,1.1,1.5c0.4,0.3,1,0.4,1.5,0.4c0.6,0.1,1.3,0,1.8-0.4
	c0.4-0.4,0.7-1.1,1.1-1.5c0.4-1.7,0.4-3.4,0-5.1C602.7,308.7,602.3,308.1,601.9,307.6L601.9,307.6z M559.4,220.4v-0.7
	c0.4,0,0.4-0.4,0.7-0.4l0.4,0.4c0,0.4,0.4,0.4,0.4,0.7l-0.4,0.4l-0.4,0.4c-0.4,0-0.4-0.4-0.7-0.4V220.4z M559.4,222.9l-1.5,2.6
	l2.2,1.1l2.2-4.4c0-0.4,0.4-0.7,0.4-1.1V220c0.1-0.7-0.2-1.4-0.7-1.8c-0.4-0.4-0.9-0.7-1.5-0.6H559c-0.6,0.3-1,0.6-1.5,1.1
	c-0.3,0.6-0.4,1.2-0.4,1.8c0,0.7,0.2,1.4,0.7,1.8C558.3,222.7,558.8,222.9,559.4,222.9z M553.2,222.6l0.8-1.5v1.5H553.2z
	 M556.2,217.5H554l-3.3,5.1l-0.4,0.4v1.9h3.7v1.5h2.2v-1.5h0.7v-2.2h-0.7V217.5z M547.3,211.6h0.7c0.4,0.4,0.4,0.4,0.4,0.7
	s0,0.4-0.4,0.7c-0.4,0.4-1,0.4-1.5,0c-0.3-0.2-0.4-0.6-0.2-0.9c0-0.1,0.1-0.1,0.2-0.2v-0.4L547.3,211.6z M547.7,209.4h-0.4
	c-0.4,0-0.4-0.4-0.4-0.7l0,0v-0.4h0.7c0,0.2,0.2,0.4,0.3,0.4c0,0,0,0,0,0l0,0v0.4C547.7,209,547.7,209,547.7,209.4L547.7,209.4z
	 M545.9,214.9c0.4,0.3,0.9,0.4,1.5,0.4c0.6,0.1,1.3-0.1,1.8-0.4c0.4-0.4,0.7-0.4,1.1-1.1c0.4-0.8,0.4-1.7,0-2.6
	c-0.4-0.4-0.4-0.7-0.7-1.1c0.5-0.3,0.7-0.9,0.7-1.5c0-0.4-0.4-0.7-0.4-1.1c-0.4-0.7-0.7-0.7-1.1-1.1c-0.9-0.4-2-0.4-2.9,0
	c-0.4,0.4-0.7,0.4-0.7,1.1c-0.3,0.3-0.4,0.7-0.4,1.1v1.1c0.2,0.2,0.3,0.5,0.4,0.7c-0.7,0.4-0.7,1.1-0.7,1.8s0,1.1,0.4,1.5
	c-0.1,0.5,0.3,1,0.9,1.1C545.7,214.9,545.8,214.9,545.9,214.9L545.9,214.9z M552.8,212.3c0-0.2,0.2-0.4,0.3-0.4c0,0,0,0,0,0
	c0-0.4,0.4-0.4,0.4-0.4c0.4,0,0.4,0,0.4,0.4c0.2,0,0.4,0.2,0.4,0.4c0,0,0,0,0,0c0,0.4,0,0.7-0.4,0.7c-0.2,0.2-0.5,0.2-0.8,0
	C552.8,212.7,552.8,212.7,552.8,212.3L552.8,212.3z M553.6,215.3c1.4,0.2,2.7-0.8,2.9-2.2c0-0.2,0-0.5,0-0.7c0-0.7-0.3-1.3-0.7-1.8
	c-0.4-0.7-1.1-0.7-1.5-1.1l1.1-2.6l-1.9-0.7l-2.2,4.4c0,0.4-0.4,0.7-0.4,1.1c-0.5,1-0.2,2.2,0.7,2.9
	C552.2,215,552.8,215.3,553.6,215.3L553.6,215.3z M571.9,211.3l1.1-1.1v1.1H571.9z M569.3,211.6v1.8h3.7v1.5h2.2v-1.5h0.3v-2.2h-0.4
	v-5.2h-2.2L569.3,211.6z M559.5,209.1v-0.7h1c0,0.4,0.4,0.4,0.4,0.7l-0.4,0.4c0,0.2-0.2,0.4-0.3,0.4c0,0,0,0,0,0
	c-0.4,0-0.4,0-0.7-0.4L559.5,209.1z M559.5,212l-1.5,2.5l2.2,0.7l2.2-4.4c0-0.4,0.4-0.7,0.4-1.1V209c0.1-0.8-0.2-1.6-0.7-2.2
	c-0.4-0.4-0.7-0.4-1.5-0.7c-0.5-0.1-1,0.1-1.5,0.4c-0.7,0-1.1,0.4-1.5,1.1c-0.4,0.4-0.4,0.7-0.4,1.5c-0.1,0.7,0.2,1.4,0.7,1.8
	C558.3,211.3,558.8,211.7,559.5,212L559.5,212z M566.8,208.3h-3.3v-1.8h5.9v1.1l-3.7,7.7l-1.8-0.7L566.8,208.3z M563.1,224.1v-0.4
	h2.2c0,0.4,0.4,0.4,0.4,0.8c0.4,0.1,0.8-0.1,1.1-0.4c0.4-0.4,0.4-0.8,0-1.5c-0.4,0-0.4-0.4-0.7,0c-0.4,0-0.4,0-0.4,0.4h-0.4
	l-1.8-0.4l1-5.1h4.4v2.2h-2.6v0.7c0.7,0,1.3,0.3,1.8,0.7c0.6,0.6,1,1.3,1.1,2.2c0.1,0.9-0.3,1.8-1.1,2.2c-0.4,0.8-1.3,1.2-2.2,1.1
	c-0.7,0-1.3-0.3-1.8-0.7C563.4,225.6,563,224.8,563.1,224.1L563.1,224.1z M540.4,222.6l1.1-1.5v1.5H540.4z M535.6,221.9
	c0.2,0.8,0.1,1.6-0.4,2.2c0,0.4,0,0.4-0.4,0.4s-0.7,0-0.7-0.4c-0.3-0.6-0.4-1.2-0.4-1.9c-0.1-0.6,0-1.3,0.4-1.8c0-0.4,0-0.4,0.4-0.7
	h0.4c0.3,0,0.5,0.2,0.7,0.4C535.8,220.6,535.8,221.3,535.6,221.9L535.6,221.9z M537.5,219.3c0-0.7-0.4-1.1-1.1-1.5
	c-0.4-0.3-1-0.4-1.5-0.4c-1,0-1.9,0.4-2.6,1.1c-0.4,1.1-0.7,2.2-0.7,3.3c-0.1,0.9,0,1.8,0.4,2.6c0.3,0.5,0.7,1,1.1,1.5
	c0.7,0.4,1.1,0.7,1.8,0.7c0.6-0.1,1.1-0.4,1.5-0.7c0.7-0.4,1.1-0.7,1.1-1.5c0.4,0,0.4-0.4,0.4-0.8v1.1h3.7v1.5h2.2v-1.5h0.7v-2.2
	h-0.7v-5.1h-2.2l-3.7,5.1v-0.7C538.1,221,537.9,220.1,537.5,219.3L537.5,219.3z M526.5,304.7c-0.7-0.7-1.1-1.1-1.1-1.8v-0.4h2.1
	c0,0.2,0.2,0.4,0.3,0.4c0,0,0,0,0,0c0.2,0.3,0.6,0.4,0.9,0.2c0.1,0,0.1-0.1,0.2-0.2c0.4-0.4,0.4-1,0-1.5c-0.4-0.4-0.4-0.4-0.7,0
	c-0.4,0-0.4,0-0.4,0.4h-0.4l-1.8-0.4l1.1-5.1h4.4v2.2h-2.6v0.7c0.7,0,1.5,0,1.8,0.7c1.2,0.9,1.5,2.6,0.6,3.8
	c-0.2,0.2-0.3,0.4-0.6,0.6c-0.4,0.7-1.1,0.7-2.2,0.7C527.6,305.2,526.9,305,526.5,304.7L526.5,304.7z M540.4,212.4
	c0-0.4,0-0.4,0.4-0.7h0.4c0.2,0.2,0.5,0.5,0.7,0.7c0,0.4,0,0.4-0.4,0.7h-1.1V212.4z M541.1,215.3c0.7,0,1.3-0.3,1.8-0.7
	c0.6-0.6,1-1.3,1.1-2.2c0-0.8-0.4-1.5-1.1-1.8c-0.4-0.7-0.7-0.7-1.5-1.1l1.5-2.6l-1.8-0.7l-2.2,4.4c-0.4,0.4-0.4,0.7-0.7,1.1
	c-0.1,0.6,0.1,1.3,0.4,1.8c0,0.4,0.4,0.7,0.4,1.1C539.6,214.9,540.3,215.2,541.1,215.3L541.1,215.3z M525.7,318.6h5.8v1.5l-3.7,7.7
	L526,327l2.9-6.2h-3.3L525.7,318.6z M527.9,313.5v-0.4c0-0.2,0.2-0.4,0.3-0.4c0,0,0,0,0,0c0.4,0,0.4,0,0.7,0.4v0.4
	c0,0.4,0,0.7-0.4,0.7c-0.4,0.4-0.4,0-0.7,0V313.5L527.9,313.5L527.9,313.5z M528.3,316.4c0.8,0,1.6-0.3,2.2-0.7
	c0.6-0.6,0.8-1.4,0.7-2.2c0-0.7,0-1.5-0.7-1.8c-0.4-0.4-0.9-0.7-1.5-0.7l1.5-2.9l-1.8-0.7l-2.6,4.4c0,0.4-0.4,0.7-0.4,1.1
	c-0.3,1-0.1,2.2,0.7,2.9C526.9,316.1,527.6,316.4,528.3,316.4L528.3,316.4z M532.7,315.7c-0.7-0.5-1.1-1.3-1.2-2.2v-0.4h2.2v0.4
	c0,0.4,0.4,0.4,0.4,0.7c0.4,0.4,0.7,0.4,1.5,0c0-0.4,0.4-0.7,0-1.1c0-0.2-0.2-0.4-0.3-0.4c0,0,0,0,0,0c-0.4,0-0.7-0.4-1.1-0.4h-0.4
	v-1.9h1.1c0-0.2,0.2-0.4,0.3-0.4c0,0,0,0,0,0v-0.7h-0.7l-0.4,0.4v0.4h-2.2v-0.4c0-0.8,0.4-1.5,1.1-1.8c0.5-0.5,1.2-0.7,1.8-0.7
	c1.1,0,2.1,0.5,2.6,1.5v1.1c0.1,0.4-0.1,0.8-0.4,1.1c0,0.2-0.2,0.4-0.3,0.4c0,0,0,0,0,0c0.6,0.6,1,1.3,1.1,2.2
	c-0.1,0.8-0.3,1.5-0.7,2.2c-0.7,0.4-1.4,0.7-2.2,0.7C534.1,316.4,533.3,316.2,532.7,315.7L532.7,315.7z M529,208.3h-3.3v-1.8h5.8
	v1.1l-3.7,7.7l-1.8-0.7L529,208.3z M535.2,208.3h-3.3v-1.8h5.9v1.1l-3.7,7.7l-1.8-0.7L535.2,208.3z M531.5,226.3h-6.2v-1.1l2.6-2.6
	c0.4-0.4,0.7-1.1,1.1-1.5c0-0.3,0.2-0.5,0.4-0.7c0-0.4,0-0.7-0.4-0.7l-0.4-0.4c-0.3,0-0.5,0.2-0.7,0.4c-0.2,0.2-0.3,0.4-0.4,0.7v0.4
	h-2.2v-0.4c0.1-0.8,0.4-1.6,1.1-2.2c0.6-0.6,1.4-0.8,2.2-0.7c0.5-0.1,1,0.1,1.5,0.4c0.4,0,0.7,0.4,1.1,0.7c0,0.7,0.4,1.1,0.4,1.5
	c0,0.7-0.4,1.1-0.7,1.8c-0.3,0.8-0.8,1.4-1.5,1.8l-0.4,0.4h2.5L531.5,226.3z M541.8,291.1c0,0.4-0.4,0.4-0.4,0.7h-0.7l-0.4-0.4v-1.1
	h1.1C541.8,290.7,541.8,290.7,541.8,291.1z M541.1,284.5l-2.2,4.4c-0.4,0.4-0.4,1.1-0.7,1.5c0,0.6,0.1,1.3,0.4,1.8
	c0,0.3,0.2,0.5,0.4,0.7c0.4,0.4,0.7,0.7,1.1,0.7c0.3,0.3,0.7,0.4,1.1,0.4c0.7,0,1.1-0.4,1.5-0.4c0.4-0.4,0.7-0.7,0.7-1.1
	c0.4-0.4,0.7-0.9,0.7-1.5c-0.1-0.8-0.5-1.6-1.1-2.2c-0.4-0.5-0.9-0.7-1.5-0.7l1.5-2.6L541.1,284.5z M537.8,286.3l-3.7,7.7l-1.8-0.7
	l2.9-6.2h-3.3v-2.2h5.9V286.3z M537.8,305h-6.3v-1.1l2.6-2.9l1.1-1.1c0.3-0.3,0.4-0.7,0.4-1.1c0-0.2-0.2-0.4-0.4-0.4c0,0,0,0,0,0
	c0-0.4-0.4-0.4-0.7-0.4c0,0.2-0.2,0.4-0.3,0.4c0,0,0,0,0,0c0,0.4-0.4,0.4-0.4,0.7v0.3h-1.8v-0.4c0-0.7,0-1.9,0.7-2.2
	c0.6-0.6,1.3-1,2.2-1.1c0.4,0,1.1,0.4,1.5,0.4l1.1,1.1c0,0.4,0.4,1.1,0.4,1.5c0,0.7-0.4,1.1-0.4,1.8c-0.7,0.7-1.1,1.1-1.8,1.8
	l-0.4,0.4h2.6L537.8,305z M544.4,240.2h6.2v1.1l-4,7.7l-1.8-0.8l2.9-6.2h-3.3L544.4,240.2z M538.5,270.6l2.9-5.9h-3.3v-2.2h6.2
	l-0.4,1.1l-3.7,8.1L538.5,270.6z M546.5,231.4l0.4-0.4c0.4-0.4,0.4-0.4,0.7-0.4c0,0.2,0.2,0.4,0.3,0.4c0,0,0,0,0,0v1.1h-1.1
	C546.9,231.8,546.6,231.8,546.5,231.4L546.5,231.4z M547.2,238l2.2-4.4c0.4-0.4,0.4-0.7,0.7-1.5v-1.8c-0.4-0.4-0.4-0.7-0.7-0.7
	c-0.4-0.4-0.9-0.6-1.5-0.7c-0.6-0.4-1.3-0.4-1.8,0l-1.1,1.1c-0.9,0.8-1,2.2-0.2,3.1c0.1,0.1,0.1,0.1,0.2,0.2
	c0.3,0.7,1.1,1.1,1.8,1.1l-1.4,2.6L547.2,238z M527.5,266.9v-1.4c0-0.3,0.2-0.5,0.4-0.7c0.4-0.4,0.4-0.4,0.7-0.4
	c0.2,0,0.4,0.2,0.4,0.3c0,0,0,0,0,0c0.5,1.4,0.5,3,0,4.4l-0.4,0.4c-0.3,0-0.5-0.2-0.7-0.4C527.6,268.5,527.4,267.7,527.5,266.9z
	 M525.7,269.5c0.3,0.6,0.6,1,1.1,1.5c0.5,0.3,1.2,0.5,1.8,0.4c0.5,0.1,1-0.1,1.5-0.4c0.7-0.4,1.1-0.7,1.1-1.5c0.7-1.6,0.7-3.5,0-5.1
	c0-0.7-0.4-1.1-1.1-1.5c-1-1-2.5-1-3.5,0c-0.2,0.2-0.4,0.5-0.5,0.8C525.2,265.5,525.1,267.6,525.7,269.5L525.7,269.5z M527.5,244.6
	v-1.8c0.2-0.2,0.3-0.5,0.4-0.7h0.7c0.2,0,0.4,0.2,0.4,0.3c0,0,0,0,0,0c0.3,0.7,0.4,1.4,0.4,2.2c0.1,0.6-0.1,1.3-0.4,1.8
	c0,0.2-0.2,0.4-0.4,0.4c0,0,0,0,0,0c-0.4,0-0.7,0-0.7-0.4C527.6,245.8,527.4,245.2,527.5,244.6z M525.7,247.1
	c0.4,0.4,0.7,1.1,1.1,1.5c0.5,0.3,1.2,0.5,1.8,0.4c0.5,0.1,1-0.1,1.5-0.4c0.6-0.3,1-0.8,1.1-1.5c0.3-0.8,0.4-1.7,0.4-2.6
	c0.1-1-0.1-2-0.4-2.9c-0.1-0.6-0.5-1.2-1.1-1.5c-0.4-0.3-0.9-0.4-1.5-0.4c-1,0-1.9,0.4-2.6,1.1c-0.6,1.1-0.9,2.4-0.7,3.7
	C525.3,245.4,525.4,246.3,525.7,247.1z M540,300.6c-0.1-0.5,0.1-1,0.4-1.5c0-0.4,0-0.7,0.4-0.7c0-0.4,0-0.4,0.4-0.4
	c0.3,0,0.5,0.2,0.7,0.4c0,0.7,0.4,1.5,0.4,2.2s-0.4,1.5-0.4,2.2c-0.4,0-0.4,0.4-0.7,0.4s-0.4-0.4-0.7-0.4
	C540,302.1,539.9,301.4,540,300.6L540,300.6z M539.2,304.6c1.2,0.5,2.5,0.5,3.7,0c0.5-0.4,0.8-0.9,1.1-1.5c0.4-1.7,0.4-3.4,0-5.1
	c-0.3-0.6-0.6-1.1-1.1-1.5c-0.7-0.4-1.1-0.7-1.8-0.7c-1.1,0-2.1,0.5-2.6,1.5c-0.4,1.1-0.7,2.2-0.7,3.3c0,1.1,0.4,1.8,0.4,2.6
	C538.4,303.7,538.8,304.2,539.2,304.6L539.2,304.6z M547.2,290c0.3,0,0.5,0.2,0.7,0.4c0,0.2,0.2,0.4,0.3,0.4c0,0,0,0,0,0v0.4
	c0,0.2-0.2,0.4-0.3,0.4c0,0,0,0,0,0c-0.4,0.4-1,0.4-1.5,0l0,0c0-0.2-0.2-0.4-0.3-0.4c0,0,0,0,0,0c0-0.4,0.4-0.4,0.4-0.7
	C546.9,290.4,546.9,290,547.2,290L547.2,290z M547.6,287.8c0,0.4-0.4,0.4-0.7,0.4v-0.7l0,0V287h0.7c0.2,0,0.4,0.2,0.4,0.4
	c0,0,0,0,0,0v0.4L547.6,287.8z M545.8,293.6c0.4,0,1.1,0.4,1.5,0.4c0.7,0,1.1-0.4,1.8-0.4l1.1-1.1c0.4-0.9,0.4-2,0-2.9
	c-0.4,0-0.4-0.4-0.7-0.7c0.5-0.4,0.7-0.9,0.7-1.5c0-0.4-0.4-1.1-0.4-1.5c-0.4-0.4-0.7-0.7-1.1-0.7c-0.8-0.7-2.1-0.7-2.9,0
	c-0.4,0-0.7,0.3-0.7,0.7c-0.3,0.4-0.4,0.9-0.4,1.5v1.1l0.4,0.4c-0.6,0.6-0.8,1.4-0.7,2.2c-0.1,0.5,0.1,1,0.4,1.5
	C544.7,292.9,545.1,293.3,545.8,293.6L545.8,293.6z M534.1,257.4v-0.7h1.1c0,0.4,0.4,0.4,0.4,0.7c-0.2,0-0.4,0.2-0.4,0.3
	c0,0,0,0,0,0c0,0.2-0.2,0.4-0.4,0.4c0,0,0,0,0,0c-0.3,0-0.5-0.2-0.7-0.4V257.4z M532.6,259.2c0.4,0.5,0.9,0.8,1.5,1.1
	c0.6,0.1,1.3-0.1,1.8-0.4c0.4,0,0.8-0.4,1.1-1.1c0.4-0.4,0.4-0.7,0.4-1.5c0.1-0.8-0.2-1.6-0.7-2.2c-0.4-0.4-0.9-0.7-1.5-0.7l1.5-2.6
	l-1.9-1.1l-2.2,4.4c-0.4,0.4-0.4,1.1-0.7,1.5v1.8C532.3,258.9,532.3,259.2,532.6,259.2L532.6,259.2z M546.6,278.7l1.1-1.1v1.1H546.6
	z M547.7,282.3h2.2v-1.5h0.7v-2.2h-0.7v-5.2h-2.2L544,279v1.8h3.7V282.3z M538.1,255.6c-0.1-0.8,0.2-1.6,0.7-2.2
	c0.3-0.8,0.8-1.4,1.5-1.8c1.4-0.7,3-0.7,4.4,0c0.7,0.3,1.3,0.7,1.8,1.1v0.4l-1.5,1.5v-0.4c-0.8-0.5-1.7-0.7-2.6-0.7
	c-0.6-0.1-1.2,0.2-1.5,0.7c-0.7,0.4-0.7,0.7-0.7,1.5c-0.1,0.5,0.1,1,0.4,1.5c0,0.4,0.4,0.4,0.7,0.7c0.8,0.4,1.7,0.4,2.6,0
	c0.4,0,0.7-0.4,1.1-0.7v-0.4l1.5,1.8c-0.5,0.6-1.1,1.1-1.8,1.5c-0.7,0-1.5,0.4-2.2,0.4c-2.4,0-4.4-2-4.4-4.4
	C538.1,255.8,538.1,255.7,538.1,255.6L538.1,255.6z M532.3,270.6l2.9-5.9h-3.3v-2.2h5.9v1.1l-3.7,8.1L532.3,270.6z M541.8,235
	l-0.4,0.4c-0.4,0.4-0.4,0.4-0.7,0h-0.4v-1.1c0.4,0,0.4-0.4,0.7-0.4l0.4,0.4C541.8,234.3,541.8,234.7,541.8,235L541.8,235z
	 M541.1,228.4l-2.2,4.4c-0.4,0.4-0.4,0.7-0.7,1.1c-0.1,0.8,0.1,1.5,0.4,2.2c0.2,0.2,0.3,0.5,0.4,0.7c0.4,0.4,0.9,0.6,1.5,0.7
	c0.7,0.4,1.1,0,1.8,0l1.1-1.1c0.4-0.4,0.6-0.9,0.7-1.5c0-0.9-0.4-1.7-1.1-2.2c-0.4-0.5-0.9-0.7-1.5-0.7l1.5-2.6L541.1,228.4z
	 M541.4,277.2c0.4-0.4,0.4-0.4,0.4-0.7s0-0.4-0.4-0.7h-0.4c-0.4,0-0.4,0-0.7,0.4v1.1h-2.2v-0.4c-0.4-1.4,0.5-2.9,2-3.2
	c0.3-0.1,0.7-0.1,1-0.1c0.7,0,1.1,0,1.5,0.4l1.1,1.1c0.4,0.4,0.4,0.7,0.4,1.5c0.1,0.5-0.1,1-0.4,1.5c-0.4,0.7-1.1,1.5-1.5,2.2
	l-0.4,0.4h2.2v1.8h-6.2v-1.1l2.6-2.6C540.8,278.2,541.2,277.7,541.4,277.2L541.4,277.2z M535.6,246l-0.4,0.4v0.4h-1.1
	c-0.3-0.2-0.4-0.7-0.1-1c0,0,0.1-0.1,0.1-0.1c0.4-0.4,0.4-0.4,0.7-0.4c0.2,0,0.4,0.2,0.4,0.3c0,0,0,0,0,0L535.6,246z M534.8,239.8
	l-2.2,4.4c-0.4,0.4-0.4,0.7-0.7,1.1v0.7c0.1,0.8,0.3,1.5,0.7,2.2c0.4,0.4,0.7,0.4,1.1,0.8h1.1c0.5,0.1,1.1-0.1,1.5-0.4l0.7-0.8
	c0.3-0.6,0.4-1.2,0.4-1.8c0-0.7,0-1.5-0.7-1.8c-0.4-0.5-0.9-0.8-1.5-1.1l1.5-2.6L534.8,239.8z M534.8,233.9c0.4,0,0.4,0,0.7,0.4v1.1
	c-0.7,0.4-1.1,0.4-1.5,0s-0.4-0.4-0.4-0.7v-0.4h0.4C534.1,234,534.5,234,534.8,233.9L534.8,233.9z M535.2,231.7
	c-0.4,0-0.4,0.4-0.7,0c-0.2,0-0.4-0.2-0.4-0.3c0,0,0,0,0,0c0-0.4,0-0.4,0.4-0.7h0.4c0.2,0,0.4,0.2,0.4,0.3c0,0,0,0,0,0l0,0
	L535.2,231.7L535.2,231.7z M531.5,235c0,0.4,0.4,1.1,0.4,1.5c0.4,0.4,0.7,0.7,1.1,0.7c0.6,0.3,1.2,0.4,1.8,0.4
	c0.5,0.1,1.1-0.1,1.5-0.4c0.7,0,1.1-0.4,1.1-0.7c0.3-0.4,0.4-0.9,0.4-1.5c0.1-0.8-0.2-1.6-0.7-2.2c0-0.4,0-0.4,0.4-0.7v-0.7
	c0-0.7,0-1.1-0.4-1.5c0-0.4-0.4-0.7-0.7-1.1c-0.9-0.4-2-0.4-3,0l-1.1,1.1c0,0.4-0.4,0.7-0.4,1.1c-0.1,0.4,0.1,0.8,0.4,1.1
	c0,0.4,0,0.4,0.4,0.7C531.8,233.3,531.4,234.2,531.5,235L531.5,235z M579.5,246.7V246c0-0.4,0-0.4-0.4-0.7c-0.3-0.2-0.7-0.3-1.1-0.4
	h-0.4v-1.8h1.1c0-0.2,0.2-0.4,0.3-0.4c0,0,0,0,0,0V242h-0.7l-0.4,0.4v0.4h-2.2v-0.4c0-0.8,0.4-1.5,1.1-1.8c1-1,2.6-1,3.7,0
	c0.7,0.4,0.7,1.1,0.7,1.8s0,1.1-0.7,1.5c0.4,0.4,0.7,0.4,0.7,0.7c0.3,0.4,0.4,1,0.4,1.5c0.1,0.8-0.2,1.6-0.7,2.2
	c-0.7,0.4-1.4,0.7-2.2,0.8c-0.8,0-1.6-0.3-2.2-0.8c-0.6-0.6-1-1.4-1.1-2.2v-0.4h2.2v0.4c0,0.4,0.4,0.4,0.4,0.7
	C578.5,247.1,579.1,247.1,579.5,246.7L579.5,246.7z M540.3,242.7c0-0.4,0-0.4,0.4-0.7h0.7c0.4,0.4,0.4,0.4,0.4,0.7s0,0.4-0.4,0.4
	c0,0.4,0,0.4-0.4,0.4c-0.2,0-0.4-0.2-0.4-0.3c0,0,0,0,0,0C540.3,243.1,540.3,243.1,540.3,242.7L540.3,242.7z M541,249l2.2-4.4
	c0.4-0.4,0.4-0.7,0.7-1.1v-0.7c-0.1-0.8-0.3-1.5-0.7-2.2c-0.4-0.4-1.1-0.4-1.5-0.7c-0.6-0.1-1.3,0.1-1.8,0.4c-0.4,0-0.7,0.4-1.1,1.1
	c-0.4,0.4-0.7,0.9-0.7,1.5c0,0.7,0.4,1.1,0.7,1.8c0.6,0.4,1.2,0.8,1.8,1.1l-1.5,2.6L541,249z M548,268.8c0,0.3-0.2,0.5-0.4,0.7
	c-0.4,0-0.7,0-0.7-0.4c-0.3-0.2-0.4-0.6-0.2-0.9c0-0.1,0.1-0.1,0.2-0.2c0-0.2,0.2-0.4,0.3-0.4c0,0,0,0,0,0l0.4,0.4
	C548,268,548,268.4,548,268.8L548,268.8z M547.3,262.2l-2.2,4.4c-0.3,0.3-0.4,0.7-0.4,1.1c-0.4,0.7-0.4,1.5,0,2.2
	c0.2,0.2,0.3,0.5,0.4,0.7c0.4,0.4,0.7,0.4,1.1,0.7h1.5c0.4,0,0.8-0.1,1.1-0.4c0.4,0,0.7-0.3,0.7-0.7c0.4-0.4,0.6-0.9,0.7-1.5
	c0-0.8-0.3-1.6-0.7-2.2c-0.7-0.4-1.1-0.7-1.5-0.7l1.1-2.6L547.3,262.2z M527.5,278.3v-1.8c0.2-0.2,0.3-0.5,0.4-0.7h0.7
	c0.2,0,0.4,0.2,0.4,0.3c0,0,0,0,0,0c0.3,0.7,0.4,1.4,0.4,2.2c0.1,0.6,0,1.3-0.4,1.8c0,0.2-0.2,0.4-0.3,0.4c0,0,0,0,0,0
	c-0.4,0-0.7,0-0.7-0.4C527.5,279.6,527.4,278.9,527.5,278.3z M534.1,278.7l1.1-1.1v1.1H534.1z M525.7,280.9c0.4,0.4,0.7,1.1,1.1,1.5
	c0.6,0.3,1.2,0.5,1.8,0.4c0.5,0.1,1-0.1,1.5-0.4c0.6-0.3,1-0.8,1.1-1.5c0.3-0.3,0.4-0.7,0.4-1.1v1.1h3.7v1.8h1.9v-1.8h0.7v-2.2H537
	v-5.2h-1.9l-3.7,5.5v-0.7c0.1-1-0.1-2-0.4-2.9c-0.1-0.6-0.5-1.2-1.1-1.5c-0.4,0-1.1-0.4-1.5-0.4c-1,0-1.9,0.4-2.6,1.1
	c-0.6,1.1-0.8,2.4-0.7,3.7C525.2,279.2,525.4,280,525.7,280.9L525.7,280.9z M548,302.5c0,0.2-0.2,0.4-0.3,0.4c0,0,0,0,0,0
	c0,0.4,0,0.4-0.4,0.4c-0.2,0-0.4-0.2-0.4-0.4c0,0,0,0,0,0c-0.3-0.2-0.4-0.6-0.2-0.9c0-0.1,0.1-0.1,0.2-0.2c0,0,0-0.4,0.4,0
	c0-0.4,0.4,0,0.4,0C548,301.7,548,302.1,548,302.5z M547.3,295.9l-2.2,4.4c-0.3,0.3-0.4,0.7-0.4,1.1c-0.4,0.7-0.4,1.5,0,2.2
	c0,0.4,0.4,0.4,0.4,0.7c0.4,0.4,0.9,0.6,1.5,0.7c0.7,0.4,1.1,0,1.8,0c0.4-0.4,1.1-0.7,1.1-1.1c0.4-0.4,0.6-0.9,0.7-1.5
	c0-0.8-0.3-1.6-0.7-2.2c-0.7-0.4-1.1-0.7-1.5-0.7l1.1-2.6L547.3,295.9z M550.6,257.4l-0.4,0.4c0,0.2-0.1,0.4-0.3,0.4c0,0,0,0,0,0
	c-0.4,0-0.4,0-0.7-0.4c0-0.4-0.4-0.7,0-1.1h1.1C550.2,257,550.6,257,550.6,257.4L550.6,257.4z M549.9,250.8l-2.2,4.4
	c-0.4,0.4-0.4,1.1-0.7,1.5v0.7c0,0.7,0.3,1.3,0.7,1.8c0.4,0.4,1.1,0.7,1.5,1.1c0.6,0.1,1.3-0.1,1.8-0.4c0.4,0,0.7-0.4,1.1-1.1
	c0.5-0.3,0.7-0.9,0.7-1.5c-0.1-0.8-0.4-1.6-1.1-2.2c-0.4-0.4-0.9-0.7-1.5-0.7l1.5-2.6L549.9,250.8z M548,221.1v-1.5
	c-0.2-0.3-0.6-0.4-0.9-0.2c-0.1,0-0.1,0.1-0.2,0.2l0,0c-0.2,0.2-0.3,0.4-0.4,0.7v0.4h-2.2v-0.4c0.1-0.8,0.3-1.5,0.7-2.2
	c0.6-0.6,1.4-0.8,2.2-0.7c0.7,0,1.1,0,1.5,0.4c0.7,0,0.7,0.4,1.1,1.1c0.3,0.3,0.4,0.7,0.4,1.1c0.1,0.6-0.1,1.3-0.4,1.8
	c-0.4,0.7-0.9,1.3-1.5,1.8l-0.4,0.4h2.2v2.2H544v-1.1l2.6-2.6C547.3,222.2,547.7,221.5,548,221.1L548,221.1z M529,257.8
	c0.4,0,0.4-0.4,0.4-0.7c0-0.2-0.1-0.4-0.3-0.4c0,0,0,0,0,0c-0.3-0.3-0.7-0.4-1.1-0.4h-0.4v-1.8h0.4c0.4,0,0.4-0.4,0.7-0.4h0.4v-0.7
	h-1.1v0.4l-0.4,0.4h-1.8v-0.4c0-0.7,0.3-1.3,0.7-1.8c0.6-0.6,1.4-0.8,2.2-0.7c0.7-0.1,1.4,0.2,1.8,0.7c0.9,0.8,1,2.2,0.2,3.1
	c-0.1,0.1-0.1,0.1-0.2,0.2c0.4,0,0.4,0.4,0.7,0.7s0.4,0.7,0.4,1.5c0,0.7-0.3,1.3-0.7,1.8c-0.7,0.7-1.6,1.1-2.6,1.1
	c-0.7,0-1.3-0.3-1.8-0.7c-0.6-0.6-1-1.4-1.1-2.2v-0.4h2.2c0,0.4,0,0.7,0.4,0.7c0.2,0.3,0.7,0.4,1,0.1
	C528.9,257.9,528.9,257.8,529,257.8L529,257.8L529,257.8z M529,235.1c0,0.3-0.2,0.5-0.4,0.7c-0.4,0-0.4,0-0.7-0.4
	c-0.3-0.2-0.4-0.6-0.2-0.9c0-0.1,0.1-0.1,0.2-0.2l0.4-0.4c0.4,0,0.4,0.4,0.7,0.4V235.1z M528.6,228.5l-2.6,4.4
	c0,0.4-0.4,0.7-0.4,1.1c-0.3,1-0.1,2.2,0.7,2.9c0.4,0.4,0.9,0.7,1.5,0.7c0.4,0.4,1.1,0,1.5,0c0.6-0.3,1-0.6,1.5-1.1
	c0.3-0.4,0.4-0.9,0.4-1.5c0-1.1,0-1.5-0.7-2.2c-0.4-0.5-0.9-0.7-1.5-0.7l1.5-2.6L528.6,228.5z M606.3,278.3v-1.8
	c0-0.3,0.2-0.5,0.4-0.7h0.4c0.4,0,0.4,0,0.7,0.4c0.3,0.7,0.4,1.4,0.4,2.2c0.1,0.6,0,1.3-0.4,1.8c0,0.4-0.4,0.4-0.7,0.4
	s-0.4,0-0.7-0.4C606.3,279.8,606,279,606.3,278.3L606.3,278.3z M604.1,278.3c-0.1,0.9,0.1,1.7,0.4,2.6c0.1,0.6,0.5,1.2,1.1,1.5
	c0.4,0.3,0.9,0.4,1.5,0.4c0.6,0.1,1.3,0,1.8-0.4c0.4-0.4,0.7-1.1,1.1-1.5c0.4-1.8,0.4-3.7,0-5.5c-0.4-0.4-0.7-1.1-1.1-1.5
	c-0.7,0-1.1-0.4-1.8-0.4c-1-0.1-1.9,0.5-2.2,1.5C604.1,275.9,603.8,277.1,604.1,278.3L604.1,278.3z M556.5,257.8
	c0.7-0.4,0.7-0.7,0.4-1.5c-0.4,0-0.7-0.4-1.1,0c-0.2,0-0.4,0.2-0.4,0.3c0,0,0,0,0,0l-1.9-0.4l1.1-5.1h4.4v2.2h-2.9v0.7
	c0.8,0.1,1.5,0.3,2.2,0.7c0.4,0.7,0.7,1.4,0.7,2.2c0,0.8-0.2,1.6-0.7,2.2c-0.6,0.6-1.3,1-2.2,1.1c-0.8-0.1-1.5-0.3-2.2-0.7
	c-0.5-0.6-0.8-1.2-1.1-1.8v-0.4h2.2c0.4,0.4,0.4,0.4,0.4,0.7C556.1,258.1,556.5,258.1,556.5,257.8z M567.1,265.1
	c0,0.4,0,0.4-0.4,0.7h-1.1v-1.1c0.2,0,0.4-0.2,0.4-0.3c0,0,0,0,0,0h0.7v0.4C566.9,264.7,567.1,264.9,567.1,265.1L567.1,265.1z
	 M568.6,267.3c0-0.4,0.4-0.7,0.4-1.5c0.4-0.6,0.4-1.3,0-1.8c0-0.4-0.4-0.4-0.7-0.7c-0.3-0.5-0.9-0.7-1.5-0.7c-0.4-0.4-1.1-0.4-1.5,0
	c-0.5,0.3-1,0.6-1.5,1.1c-0.3,0.4-0.4,1-0.4,1.5c0.1,0.8,0.3,1.5,0.7,2.2c0.4,0.4,0.9,0.6,1.5,0.7l-1.1,2.6l1.8,1.1L568.6,267.3z
	 M578.8,315.6l2.9-6.2h-3.3v-1.8h5.9v1.1l-3.7,7.7L578.8,315.6z M555.4,313.5c0-0.2,0.2-0.4,0.3-0.4c0,0,0,0,0,0
	c0-0.4,0-0.4,0.4-0.4c0.2,0.2,0.5,0.5,0.7,0.7c0,0.3-0.2,0.5-0.4,0.7c-0.2,0.2-0.5,0.2-0.7,0c0,0,0,0,0,0c-0.2,0-0.4-0.2-0.4-0.3
	c0,0,0,0,0,0V313.5z M556.1,316.4c0.7,0,1.3-0.3,1.8-0.7c0.6-0.6,1-1.3,1.1-2.2c0-0.8-0.4-1.5-1.1-1.8c-0.4-0.4-0.7-0.7-1.1-0.7
	l1.1-2.9l-1.8-0.7l-2.2,4.4c-0.4,0.4-0.4,0.7-0.8,1.1c-0.3,1,0,2.2,0.8,2.9C554.6,316.1,555.3,316.3,556.1,316.4L556.1,316.4z
	 M547.3,310.2c-0.5,0.5-0.7,1.2-0.7,1.8c-0.1,0.4,0.1,0.8,0.4,1.1c0,0.4,0.3,0.7,0.7,0.7c0.8,0.5,1.7,0.6,2.6,0.4l1.1-1.1l1.5,1.5
	v0.4c-0.7,0.4-1.1,0.7-1.8,1.1c-0.6,0.3-1.2,0.4-1.8,0.4c-1.2,0.1-2.4-0.3-3.3-1.1c-0.6-0.9-1.1-1.9-1.5-2.9c-0.1-1,0.2-2.1,0.7-2.9
	c0.3-0.7,0.8-1.2,1.5-1.5c1.3-0.8,3-1,4.4-0.4c0.8,0.3,1.4,0.8,1.8,1.5l0.4,0.4l-1.8,1.5v-0.4c-0.6-0.7-1.3-1.1-2.2-1.1
	C548.4,309.4,547.8,309.7,547.3,310.2L547.3,310.2z M574.1,316.4v-7h-1.8l1.5-1.8h2.6v8.8H574.1z M552.8,268.1
	c0.2-0.2,0.5-0.3,0.8-0.4c0.4,0,0.7,0,0.7,0.4c0.2,0,0.4,0.2,0.4,0.3c0,0,0,0,0,0c0,0.4,0,0.7-0.4,0.7c-0.4,0.4-0.7,0.4-1.5,0
	C552.8,268.8,552.4,268.4,552.8,268.1z M553.9,265.5h-0.8v-0.7l0.4-0.4l0,0c0.4,0,0.4,0,0.4,0.4c0.4,0,0.4,0,0.4,0.4l0,0
	C554.3,265.5,554.3,265.5,553.9,265.5L553.9,265.5z M555.4,271c0.4,0,0.7-0.4,1.1-0.7c0.4-0.9,0.4-2,0-2.9c-0.4-0.4-0.4-0.7-0.7-0.7
	c0.4-0.4,0.4-0.4,0.4-0.7c0.2-0.2,0.3-0.4,0.4-0.7c0-0.7-0.4-1.1-0.4-1.5l-1.1-1.2c-1-0.4-2-0.4-3,0c-0.4,0.4-0.7,0.7-0.7,1.1
	c-0.3,0.3-0.4,0.7-0.4,1.1v1.1c0.4,0.4,0.4,0.4,0.4,0.7c-0.5,0.6-0.8,1.4-0.7,2.2c-0.1,0.5,0.1,1,0.4,1.5l1.1,1.1h1.5
	C554.1,271.4,554.8,271.2,555.4,271L555.4,271z M603.4,290l0.7-1.5v1.5H603.4z M606.4,293.7v-1.5h0.7V290h-0.7v-5.1h-1.9l-3.7,5.1
	v2.2h3.3v1.5L606.4,293.7z M559.1,268.8c0-0.4,0.3-0.7,0.7-0.7v-0.4c0.4,0,0.4,0.4,0.7,0.4v0.7l0,0v0.4c-0.4,0-0.4,0.4-0.7,0.4
	l-0.4-0.4L559.1,268.8z M562,270.6c0.5-0.5,0.7-1.2,0.7-1.8c0-0.8-0.3-1.6-0.7-2.2c-0.4-0.4-0.9-0.6-1.5-0.7l1.5-2.6l-2.2-1.1
	l-2.2,4.4c0,0.4-0.4,0.7-0.4,1.1c-0.4,0.7-0.4,1.5,0,2.2c0.4,1,1.5,1.6,2.6,1.5C560.6,271.4,561.4,271.1,562,270.6L562,270.6z
	 M563.1,314.2c0.4-0.7,0.4-1.1,0-1.5c-0.3-0.3-0.7-0.4-1.1-0.4c0,0.2-0.2,0.4-0.4,0.4c0,0,0,0,0,0v0.4l-1.8-0.4l1.1-5.1h4.4v1.8
	h-2.6l-0.4,0.7c0.9-0.1,1.8,0.3,2.2,1.1c0.7,0.4,0.7,1.1,0.7,2.2c0.1,0.8-0.2,1.6-0.7,2.2c-0.7,0.4-1.4,0.7-2.2,0.7
	c-0.8,0.1-1.6-0.2-2.2-0.7c-0.4-0.6-0.8-1.2-1.1-1.8v-0.4h2.2l0.4,0.4c0,0.2,0.2,0.4,0.3,0.4c0,0,0,0,0,0c0.3,0.3,0.7,0.3,1,0
	C563,314.2,563,314.2,563.1,314.2L563.1,314.2z M526.1,293.3l2.9-6.2h-3.3v-2.2h5.8v1.5l-3.7,7.7L526.1,293.3z M571.9,222.6l1.1-1.5
	v1.5H571.9z M573,217.5l-3.7,5.1v2.2h3.7v1.5h2.2v-1.5h0.3v-2.2h-0.4v-5.1L573,217.5z M563.1,257.4c0,0.2-0.2,0.4-0.3,0.4
	c0,0,0,0,0,0c0,0.4-0.4,0.4-0.7,0.4v-0.4c-0.3-0.2-0.4-0.6-0.2-0.9c0-0.1,0.1-0.1,0.2-0.2h0.7C563.1,257,563.1,257,563.1,257.4
	L563.1,257.4z M562.4,250.8l-2.2,4.4c-0.3,0.4-0.4,1-0.4,1.5c-0.4,0.6-0.4,1.3,0,1.8c0,0.3,0.2,0.5,0.4,0.7c0.6,0.3,1,0.6,1.5,1.1
	c0.7,0,1.5,0,1.8-0.4c0.6-0.1,1.2-0.5,1.5-1.1c0-0.4,0.4-0.7,0.4-1.5c-0.1-0.8-0.3-1.5-0.7-2.2c-0.4-0.4-0.9-0.6-1.5-0.7l1.1-2.6
	L562.4,250.8z M671.9,206.5H739v22.7h-22.3v98.2h-23.1v-98.2h-21.6V206.5z M635.3,206.5H658v120.9h-22.8V206.5z"/>
<rect x="46" y="173" class="st2" width="713" height="185"/>
</svg>
